<svg width="33" height="26" viewBox="0 0 33 26" fill="none" xmlns="http://www.w3.org/2000/svg">
<g clip-path="url(#clip0_601_1236)">
<path d="M13.4198 0.556052C16.9275 0.432436 20.4388 0.555176 23.9404 0.780052C24.309 0.812052 24.6825 0.809422 25.0454 0.887011C25.2418 0.934354 25.454 1.00931 25.5688 1.18772C25.6736 1.38192 25.6758 1.60855 25.703 1.82246C25.7863 2.8732 25.8108 3.92833 25.8893 4.97907C25.7376 4.99748 25.5859 4.97424 25.4343 4.96942C22.7336 4.82959 20.0307 4.71342 17.3256 4.70992C15.9246 4.71386 14.5218 4.70027 13.1222 4.76822C12.7829 4.81819 12.3989 4.93172 12.2029 5.23419C13.262 5.42224 14.3189 5.6252 15.3775 5.81676C18.8861 6.47342 22.3973 7.11561 25.9059 7.7714C25.9029 8.43682 25.9042 9.10225 25.9055 9.76767C23.9325 9.44109 21.9629 9.08866 19.9912 8.75156C15.7492 8.02038 11.5086 7.27912 7.26528 6.55496C7.27361 5.81633 7.30517 5.07813 7.32051 4.33907C7.34725 3.75386 7.3306 3.16076 7.46298 2.58608C7.55197 2.1806 7.71679 1.77293 8.02408 1.48318C8.55449 0.958025 9.32161 0.810299 10.0357 0.736217C11.161 0.631888 12.291 0.597696 13.4198 0.556052ZM7.24512 7.52679C13.3225 8.64811 19.3977 9.78827 25.4742 10.9162C25.607 10.9486 25.749 10.9512 25.8766 10.9999L25.8919 11.035C25.8586 12.0318 25.8393 13.0295 25.8034 14.0263C25.7801 14.6413 25.7153 15.2848 25.3988 15.8266C25.0595 16.3868 24.4274 16.6968 23.8018 16.8138C22.88 16.987 21.9384 16.9984 21.0047 17.0496C16.9871 17.232 12.9613 17.1312 8.95032 16.855C8.62988 16.8327 8.30375 16.827 7.99251 16.738C7.8312 16.6871 7.66462 16.6052 7.57345 16.4561C7.47569 16.2606 7.46956 16.0375 7.44545 15.8244C7.35953 14.6615 7.31394 13.4963 7.25301 12.3321C9.32205 12.4636 11.3946 12.5372 13.4676 12.5832C15.4691 12.6157 17.4707 12.6152 19.4722 12.635C19.904 12.6529 20.3708 12.5705 20.6983 12.2672C20.7461 12.2124 20.8236 12.1615 20.8157 12.0796C19.9136 11.9441 19.0167 11.7758 18.1164 11.6276C14.4938 11.0082 10.8694 10.3945 7.24731 9.77162C7.24293 9.02334 7.24819 8.27507 7.24512 7.52679Z" fill="#19191B"/>
<path d="M23.3666 22.3894V23.7751H18.9593V23.3847C18.9593 22.7797 19.0565 22.3797 19.7668 22.3797H23.3666V22.3894ZM19.4944 21.5307C18.3366 21.5307 17.8015 22.1455 17.8015 23.1408V25.9316H18.9593V24.6435H23.3666V25.9219H24.5243V21.5307H19.4944ZM25.9545 21.5307V22.3894H28.6787V25.9219H29.8365V22.3894H32.5606V21.5307H25.9545ZM10.3684 24.2337C10.3684 24.8485 10.4949 25.0729 11.1759 25.0729H16.0113V25.9316H10.9035C9.74573 25.9316 9.20089 25.4047 9.20089 24.4191V21.5307H16.0016V22.3894H10.3587V23.2481H15.7681V24.0922H10.3587V24.2386L10.3684 24.2337ZM2.07914 23.0627C1.71916 23.0335 1.66079 22.9066 1.66079 22.6919C1.66079 22.4968 1.76781 22.3797 2.04022 22.3797H7.38154V21.5307H1.90401C1.12568 21.5307 0.590576 21.8332 0.590576 22.7017C0.590576 23.5701 0.989472 23.8726 1.88456 23.9507L6.21404 24.3118C6.54483 24.341 6.64212 24.4484 6.64212 24.6923C6.64212 24.9168 6.54483 25.0631 6.24323 25.0631H0.804618V25.9219H6.33079C7.28425 25.9219 7.7026 25.5413 7.7026 24.6435C7.7026 23.8239 7.32316 23.4921 6.39889 23.414L2.07914 23.0627Z" fill="#19191B"/>
</g>
<defs>
<clipPath id="clip0_601_1236">
<rect width="32" height="25.4247" fill="white" transform="translate(0.575562 0.506958)"/>
</clipPath>
</defs>
</svg>
