<svg width="32" height="33" viewBox="0 0 32 33" fill="none" xmlns="http://www.w3.org/2000/svg">
<path d="M14.9314 0.157257C23.7479 -0.432726 31.3737 6.23604 31.9637 15.0524C32.5537 23.869 25.8848 31.4943 17.0682 32.0846C8.2514 32.6746 0.625893 26.0058 0.0358967 17.1892C-0.373641 11.0737 2.74695 5.26159 8.07094 2.22428C10.1723 1.02612 12.5177 0.319219 14.9314 0.157257ZM15.4146 1.51738C7.3488 1.83802 1.07032 8.63654 1.39127 16.7018C1.71192 24.7674 8.5103 31.0457 16.5761 30.7251C24.6415 30.4042 30.92 23.6059 30.5994 15.5404C30.404 10.6284 27.7526 6.14388 23.5427 3.60528C21.0956 2.12764 18.2679 1.40135 15.4116 1.51738H15.4146Z" fill="#0D392E"/>
<path d="M12.4451 3.79751C13.9792 3.27396 15.5941 3.05097 17.2069 3.14004C17.3763 3.13186 17.5451 3.16186 17.7021 3.22791C19.4723 4.6831 20.8733 6.56215 21.7841 8.70268C22.7707 11.1725 23.1349 13.8611 22.8419 16.5164C22.6614 18.4479 22.2145 20.3424 21.5145 22.1427H22.7745C22.8976 21.8124 23.0089 21.4792 23.1379 21.152C24.6048 21.3447 25.9656 22.0439 27 23.1365C25.9694 24.2363 24.6051 24.9367 23.1349 25.1209C23.0148 24.7968 22.8946 24.4756 22.7833 24.1514C18.9211 24.1514 15.0561 24.1514 11.1939 24.1514C11.0005 24.1648 10.8147 24.2341 10.6577 24.3514C10.2328 24.5726 9.81373 24.8028 9.38884 25.024C9.23324 25.0982 9.06153 25.1294 8.89069 25.1149C8.39254 25.1149 7.89438 25.1149 7.3933 25.1149C6.34161 23.9554 5.49035 22.6181 4.87616 21.1611H8.28997C8.53289 21.1353 8.77845 21.162 9.01082 21.2398C9.57725 21.4922 10.144 21.7479 10.7104 22.0063C11.1382 22.2669 11.651 22.1124 12.1228 22.1518C12.0504 20.8999 11.7006 19.6816 11.1001 18.5918C10.4619 17.5381 9.57315 16.6713 8.51853 16.0741C7.10495 15.2882 5.58002 14.7389 4 14.4471C4.21069 12.7207 4.75895 11.0571 5.61167 9.55707C6.72343 9.81854 7.81672 10.1567 8.88482 10.569C10.0306 10.9908 11.1151 11.5728 12.1082 12.299L12.4276 12.1384C11.7858 11.398 11.0629 10.7372 10.2738 10.1691C9.15118 9.32257 7.97672 8.5524 6.75741 7.86344C7.78214 6.56882 9.0413 5.49356 10.4643 4.69734C11.438 5.10818 12.3482 5.66474 13.166 6.34856C14.4093 7.37989 15.5633 8.5215 16.615 9.76007L17.0252 9.64797C15.9703 7.36353 14.2912 5.44266 12.4451 3.79751ZM18.1534 17.5072C17.3361 17.7762 16.8843 18.6791 17.1445 19.5244C17.4047 20.3694 18.2779 20.8366 19.0955 20.5675C19.9128 20.2985 20.3643 19.3953 20.1044 18.5503C20.0068 18.2337 19.8166 17.9559 19.5599 17.7556C19.1573 17.4426 18.6337 17.3502 18.1534 17.5072Z" fill="#0D392E"/>
</svg>
