<svg xmlns="http://www.w3.org/2000/svg" xmlns:xlink="http://www.w3.org/1999/xlink" width="500" zoomAndPan="magnify" viewBox="0 0 375 374.999991" height="500" preserveAspectRatio="xMidYMid meet" version="1.0"><defs><clipPath id="518a765782"><path d="M 0 15.46875 L 375 15.46875 L 375 154 L 0 154 Z M 0 15.46875 " clip-rule="nonzero"/></clipPath><clipPath id="2bc45c9063"><path d="M 41 150 L 334 150 L 334 359.71875 L 41 359.71875 Z M 41 150 " clip-rule="nonzero"/></clipPath></defs><g clip-path="url(#518a765782)"><path fill="#ffffff" d="M 369.402344 153.046875 C 368.429688 153.046875 367.449219 152.757812 366.59375 152.160156 L 187.5 26.832031 L 8.417969 152.160156 C 6.199219 153.71875 3.140625 153.175781 1.582031 150.945312 C 0.0234375 148.730469 0.566406 145.671875 2.792969 144.113281 L 184.695312 16.820312 C 186.378906 15.644531 188.632812 15.644531 190.316406 16.820312 L 372.21875 144.125 C 374.433594 145.683594 374.976562 148.742188 373.429688 150.957031 C 372.472656 152.320312 370.949219 153.046875 369.398438 153.046875 Z M 369.402344 153.046875 " fill-opacity="1" fill-rule="nonzero"/></g><g clip-path="url(#2bc45c9063)"><path fill="#ffffff" d="M 328.273438 359.414062 L 223.777344 359.414062 C 221.0625 359.414062 218.871094 357.21875 218.871094 354.507812 L 218.871094 231.441406 L 156.140625 231.441406 L 156.140625 354.507812 C 156.140625 357.21875 153.949219 359.414062 151.234375 359.414062 L 46.738281 359.414062 C 44.023438 359.414062 41.828125 357.21875 41.828125 354.507812 L 41.828125 155.253906 C 41.828125 152.539062 44.023438 150.347656 46.738281 150.347656 C 49.449219 150.347656 51.644531 152.539062 51.644531 155.253906 L 51.644531 349.601562 L 146.328125 349.601562 L 146.328125 226.535156 C 146.328125 223.824219 148.523438 221.628906 151.234375 221.628906 L 223.777344 221.628906 C 226.488281 221.628906 228.683594 223.824219 228.683594 226.535156 L 228.683594 349.601562 L 323.367188 349.601562 L 323.367188 155.253906 C 323.367188 152.539062 325.5625 150.347656 328.273438 150.347656 C 330.988281 150.347656 333.183594 152.539062 333.183594 155.253906 L 333.183594 354.507812 C 333.183594 357.21875 330.988281 359.414062 328.273438 359.414062 Z M 328.273438 359.414062 " fill-opacity="1" fill-rule="nonzero"/></g></svg>