<svg xmlns="http://www.w3.org/2000/svg" xmlns:xlink="http://www.w3.org/1999/xlink" width="500" zoomAndPan="magnify" viewBox="0 0 375 374.999991" height="500" preserveAspectRatio="xMidYMid meet" version="1.0"><defs><clipPath id="573f418277"><path d="M 43.175781 0 L 331.699219 0 L 331.699219 374.9375 L 43.175781 374.9375 Z M 43.175781 0 " clip-rule="nonzero"/></clipPath></defs><g clip-path="url(#573f418277)"><path fill="#ffffff" d="M 187.335938 0 C 219.589844 0 249.433594 10.40625 273.675781 28.046875 C 298.539062 46.136719 317.515625 71.859375 327.167969 101.789062 C 338.527344 136.996094 327.394531 179.59375 306.394531 221.453125 C 276.382812 281.300781 226.109375 340.15625 194.140625 372.121094 C 190.386719 375.878906 184.285156 375.878906 180.53125 372.121094 L 180.445312 372.039062 C 147.800781 339.371094 97.097656 280.261719 67.417969 219.988281 C 46.621094 177.761719 36.058594 134.707031 48.527344 98.761719 C 58.644531 69.617188 77.65625 44.648438 102.292969 27.140625 C 126.320312 10.046875 155.667969 0 187.335938 0 Z M 262.390625 43.613281 C 241.339844 28.296875 215.394531 19.25 187.335938 19.25 C 159.765625 19.25 134.25 27.960938 113.425781 42.777344 C 91.960938 58.035156 75.429688 79.726562 66.65625 105.007812 C 56.121094 135.351562 65.894531 173.433594 84.640625 211.492188 C 111.234375 265.484375 155.726562 318.867188 187.335938 351.574219 C 218.371094 319.40625 262.4375 266.355469 289.253906 212.886719 C 308.207031 175.101562 318.480469 137.378906 308.898438 107.652344 C 300.519531 81.691406 284.023438 59.355469 262.390625 43.613281 " fill-opacity="1" fill-rule="nonzero"/></g><path fill="#ffffff" d="M 187.335938 56.746094 C 208.027344 56.746094 226.761719 65.136719 240.328125 78.699219 C 253.890625 92.265625 262.28125 111 262.28125 131.691406 C 262.28125 152.382812 253.890625 171.121094 240.328125 184.683594 C 226.761719 198.25 208.027344 206.628906 187.335938 206.628906 C 166.644531 206.628906 147.90625 198.25 134.34375 184.683594 C 120.78125 171.121094 112.390625 152.382812 112.390625 131.691406 C 112.390625 111 120.78125 92.265625 134.34375 78.699219 C 147.90625 65.136719 166.644531 56.746094 187.335938 56.746094 Z M 226.714844 92.3125 C 216.644531 82.230469 202.710938 75.996094 187.335938 75.996094 C 171.960938 75.996094 158.039062 82.230469 147.957031 92.3125 C 137.882812 102.382812 131.648438 116.316406 131.648438 131.691406 C 131.648438 147.070312 137.882812 160.988281 147.957031 171.074219 C 158.039062 181.144531 171.960938 187.378906 187.335938 187.378906 C 202.710938 187.378906 216.644531 181.144531 226.714844 171.074219 C 236.800781 160.988281 243.019531 147.070312 243.019531 131.691406 C 243.019531 116.316406 236.800781 102.382812 226.714844 92.3125 " fill-opacity="1" fill-rule="nonzero"/></svg>