<svg xmlns="http://www.w3.org/2000/svg" xmlns:xlink="http://www.w3.org/1999/xlink" width="500" zoomAndPan="magnify" viewBox="0 0 375 374.999991" height="500" preserveAspectRatio="xMidYMid meet" version="1.0"><defs><clipPath id="977a01df89"><path d="M 37.5 0 L 329.25 0 L 329.25 375 L 37.5 375 Z M 37.5 0 " clip-rule="nonzero"/></clipPath></defs><g clip-path="url(#977a01df89)"><path fill="#ffffff" d="M 108.25 114.921875 C 106.597656 112.808594 106.988281 109.78125 109.074219 108.128906 C 111.1875 106.480469 114.238281 106.867188 115.867188 108.957031 L 122.707031 117.699219 C 124.355469 119.808594 123.96875 122.863281 121.878906 124.488281 C 119.765625 126.140625 116.714844 125.773438 115.089844 123.664062 Z M 89.851562 134.054688 C 87.285156 133.277344 85.863281 130.566406 86.636719 128.015625 C 87.414062 125.453125 90.128906 124.027344 92.691406 124.804688 L 113.6875 131.320312 C 116.238281 132.097656 117.679688 134.808594 116.902344 137.375 C 116.125 139.921875 113.390625 141.363281 110.847656 140.585938 Z M 174.71875 39.414062 L 182.722656 44.324219 C 186.097656 37.285156 191.691406 27.253906 203.878906 13.699219 C 195.324219 17.566406 184.421875 25.160156 174.71875 39.414062 Z M 165.699219 35.460938 C 181.183594 11.875 200.117188 3.621094 210.421875 1.207031 C 212.832031 0.660156 214.871094 0.382812 216.359375 0.308594 C 223.152344 0.0351562 225.214844 5.773438 221.839844 9.050781 C 200.730469 29.472656 194.03125 42.84375 190.316406 50.996094 C 191.300781 53.332031 191.328125 55.996094 190.242188 58.382812 L 194.230469 63.863281 L 294.355469 124.34375 C 299.65625 127.53125 301.308594 134.644531 297.957031 139.851562 L 293.414062 147.304688 C 291.8125 149.894531 289.3125 151.621094 286.535156 152.28125 C 283.757812 152.972656 280.734375 152.582031 278.140625 151.019531 L 177.929688 90.5 L 171.277344 89.449219 C 169.675781 91.425781 167.3125 92.664062 164.828125 92.863281 C 156.335938 108.609375 149.269531 125.878906 145.070312 141.9375 C 143.742188 147.03125 136.539062 146.664062 135.617188 141.613281 C 131.578125 119.242188 133.226562 98.820312 140.253906 79 C 138.214844 76.039062 138.003906 72.070312 139.953125 68.90625 L 157.710938 39.882812 C 159.4375 37.089844 162.488281 35.4375 165.699219 35.460938 Z M 178.070312 80.730469 L 185.597656 68.453125 L 180.570312 61.550781 C 179.332031 59.824219 179.355469 57.597656 180.480469 55.949219 L 181.21875 54.734375 L 165.773438 45.28125 L 148.453125 73.617188 L 163.894531 83.070312 C 165.222656 80.917969 166.511719 78.804688 169.933594 79.445312 Z M 285.144531 142.261719 L 289.820312 134.597656 C 290.210938 133.933594 290.03125 133.085938 289.457031 132.71875 L 193.1875 74.582031 L 187.035156 84.648438 L 283.152344 142.699219 C 283.515625 142.925781 283.914062 142.976562 284.277344 142.886719 L 284.277344 142.910156 Z M 155.695312 89.425781 L 148.46875 84.996094 C 145.167969 95.113281 143.304688 105.605469 143.144531 116.75 C 146.542969 107.917969 150.582031 99.015625 155.695312 89.425781 Z M 164.574219 191.386719 L 170.425781 189.660156 L 178.019531 181.957031 C 179.898438 180.054688 182.972656 180.027344 184.882812 181.90625 C 186.792969 183.785156 186.808594 186.835938 184.933594 188.746094 L 176.441406 197.351562 C 175.890625 197.925781 175.179688 198.386719 174.351562 198.613281 L 164.558594 201.476562 L 172.976562 221.714844 L 193.421875 179.792969 C 193.925781 178.757812 194.734375 177.980469 195.695312 177.519531 L 212.652344 168.339844 L 217.128906 144.640625 L 199.808594 132.640625 L 177.785156 134.199219 Z M 93.84375 191.296875 L 105.199219 189.808594 C 107.835938 189.46875 110.265625 191.320312 110.613281 193.984375 C 110.960938 196.621094 109.097656 199.050781 106.4375 199.398438 L 90.28125 201.535156 L 85.253906 215.964844 C 84.378906 218.492188 81.628906 219.820312 79.101562 218.953125 C 76.578125 218.078125 75.25 215.304688 76.117188 212.777344 L 84.558594 188.503906 L 75.980469 183.160156 L 61.847656 223.453125 L 144.421875 223.453125 L 108.492188 167.652344 L 81.417969 167.652344 L 79.265625 173.804688 L 92.960938 182.320312 C 95 183.582031 95.785156 186.132812 94.886719 188.261719 Z M 68.765625 174.5 C 68.816406 174.339844 68.878906 174.152344 68.953125 174 L 73.429688 161.195312 C 74.140625 159.195312 75.996094 157.933594 78.019531 157.933594 L 78.019531 157.910156 L 111.148438 157.910156 C 112.984375 157.910156 114.5625 158.921875 115.386719 160.410156 L 128.371094 180.578125 L 132.847656 154.054688 C 133.171875 152.105469 134.613281 150.617188 136.402344 150.15625 L 166.179688 141.300781 L 169.140625 128.542969 C 169.625 126.40625 171.429688 124.941406 173.519531 124.78125 L 200.796875 122.851562 C 202.035156 122.765625 203.207031 123.175781 204.121094 123.890625 L 225.183594 138.484375 C 226.808594 139.582031 227.546875 141.535156 227.199219 143.347656 L 222.472656 168.332031 L 247.757812 177.148438 C 249.757812 177.859375 251.019531 179.714844 251.019531 181.738281 L 251.019531 223.445312 L 324.527344 223.445312 C 327.328125 223.445312 329.507812 225.695312 329.371094 228.746094 L 329.320312 232.164062 L 329.34375 232.164062 C 329.34375 232.375 329.320312 232.550781 329.296875 232.738281 C 328.082031 272.84375 310.777344 308.683594 283.75 334.261719 C 277.097656 340.574219 269.847656 346.238281 262.117188 351.21875 C 261.90625 351.355469 261.726562 351.492188 261.492188 351.605469 C 237.859375 366.585938 209.667969 374.964844 179.582031 374.15625 L 179.582031 374.179688 C 179.371094 374.179688 179.195312 374.179688 179.007812 374.15625 C 142.804688 373.054688 110.0625 358.824219 85.214844 336.203125 L 78.859375 330.050781 C 52.5 302.953125 37.515625 266.75 37.515625 228.292969 C 37.515625 225.605469 39.695312 223.453125 42.355469 223.453125 L 42.355469 223.429688 L 51.582031 223.429688 Z M 217.398438 176.800781 L 201.476562 185.453125 L 182.957031 223.445312 L 241.324219 223.445312 L 241.324219 185.152344 Z M 163.199219 223.4375 L 153.519531 200.199219 C 153.105469 199.1875 153.058594 198.109375 153.308594 197.125 L 163.675781 152.152344 L 141.90625 158.621094 L 136.164062 192.6875 L 155.964844 223.429688 L 163.199219 223.429688 Z M 254.492188 344.582031 C 254.652344 339.277344 254.167969 334.574219 252.289062 331.25 C 250.25 327.625 246.601562 325.882812 239.671875 325.625 C 234.921875 325.460938 228.453125 320.144531 228.640625 314.746094 C 228.640625 314.519531 228.664062 314.285156 228.6875 314.058594 C 227.085938 307.792969 230.753906 304.140625 236.992188 301.761719 C 244.519531 298.898438 256.953125 298.324219 263.28125 295.847656 C 264.730469 295.296875 265.644531 294.722656 265.433594 294.171875 C 260.019531 280.265625 267.726562 275.289062 275.625 270.171875 C 280.652344 266.910156 285.832031 263.566406 282.164062 254.730469 C 277.714844 243.972656 246.007812 248.074219 244.699219 233.140625 L 121.582031 233.140625 C 120.019531 243.785156 113.300781 255.125 101.433594 254 C 73.582031 251.386719 67.15625 280.25 64.105469 294.015625 C 70.023438 304.734375 77.347656 314.601562 85.828125 323.316406 C 86.839844 324.351562 87.84375 325.355469 88.90625 326.367188 C 101.433594 320.539062 115.21875 320.929688 127.035156 329.605469 C 130.175781 331.921875 133.023438 332.40625 135.664062 330.109375 C 138.164062 327.929688 140.066406 323.132812 139.105469 320.453125 C 130.085938 295.125 150.207031 282.023438 171.84375 280.574219 C 185.175781 279.675781 198.59375 283.398438 203.410156 290.367188 C 212.589844 303.625 205.109375 308.675781 193.617188 316.390625 C 182.722656 323.730469 166.90625 334.355469 164.707031 363.261719 C 168.054688 363.722656 176.289062 364.546875 179.597656 364.476562 L 179.710938 364.5 C 207.09375 365.234375 232.765625 357.871094 254.492188 344.582031 Z M 256.078125 233.140625 C 262.433594 237.617188 285.191406 236.71875 291.132812 251.0625 C 297.859375 267.332031 289.253906 272.882812 280.902344 278.296875 C 276.335938 281.261719 271.910156 284.125 274.453125 290.691406 C 277.316406 298.105469 273.578125 302.257812 266.785156 304.894531 C 259.097656 307.882812 246.914062 308.382812 240.425781 310.859375 C 239.023438 311.386719 238.132812 311.871094 238.289062 312.308594 C 238.585938 313.085938 238.675781 313.910156 238.5625 314.722656 L 239.964844 315.984375 C 255.859375 316.097656 262.859375 325.089844 264.011719 338.21875 C 296.800781 314.148438 318.085938 276.066406 319.625 233.160156 L 256.078125 233.160156 Z M 155.121094 361.585938 C 157.875 328.773438 175.84375 316.6875 188.226562 308.359375 C 194.789062 303.957031 199.03125 301.082031 195.429688 295.878906 C 189.949219 287.914062 158.765625 287.1875 149.335938 300.144531 C 146.445312 304.132812 145.59375 309.734375 148.257812 317.214844 C 151.496094 326.253906 144.429688 340.710938 132.726562 341.285156 C 129.171875 341.449219 125.296875 340.347656 121.296875 337.410156 C 113.703125 331.832031 105.328125 330.894531 97 333.597656 C 113.527344 347.179688 133.347656 356.972656 155.121094 361.585938 Z M 57.523438 280.339844 C 62.527344 263.179688 73.265625 241.632812 102.355469 244.359375 C 107.796875 244.886719 110.800781 237.820312 111.761719 233.140625 L 47.308594 233.140625 C 47.882812 249.785156 51.460938 265.679688 57.523438 280.339844 Z M 57.523438 280.339844 " fill-opacity="1" fill-rule="nonzero"/></g></svg>