<svg xmlns="http://www.w3.org/2000/svg" xmlns:xlink="http://www.w3.org/1999/xlink" width="500" zoomAndPan="magnify" viewBox="0 0 375 374.999991" height="500" preserveAspectRatio="xMidYMid meet" version="1.0"><defs><clipPath id="209a27c37f"><path d="M 84.375 0 L 290.625 0 L 290.625 375 L 84.375 375 Z M 84.375 0 " clip-rule="nonzero"/></clipPath></defs><g clip-path="url(#209a27c37f)"><path fill="#ffffff" d="M 278.058594 316.53125 C 278.058594 325.191406 272.261719 332.210938 265.113281 332.210938 L 109.914062 332.210938 C 102.765625 332.210938 96.96875 325.191406 96.96875 316.53125 L 96.96875 58.449219 C 96.96875 49.789062 102.765625 42.769531 109.914062 42.769531 L 265.113281 42.769531 C 272.261719 42.769531 278.058594 49.789062 278.058594 58.449219 Z M 205.757812 362.753906 L 169.269531 362.753906 C 163.976562 362.753906 159.691406 358.464844 159.691406 353.171875 C 159.691406 347.882812 163.976562 343.59375 169.269531 343.59375 L 205.757812 343.59375 C 211.046875 343.59375 215.335938 347.882812 215.335938 353.171875 C 215.335938 358.464844 211.046875 362.753906 205.757812 362.753906 Z M 187.292969 8.8125 C 193.675781 8.8125 198.851562 13.988281 198.851562 20.375 C 198.851562 26.761719 193.675781 31.933594 187.292969 31.933594 C 180.90625 31.933594 175.730469 26.761719 175.730469 20.375 C 175.730469 13.988281 180.90625 8.8125 187.292969 8.8125 Z M 255.382812 0.113281 L 119.644531 0.113281 C 100.175781 0.113281 84.394531 19.234375 84.394531 42.816406 L 84.394531 332.164062 C 84.394531 355.746094 100.175781 374.867188 119.644531 374.867188 L 255.382812 374.867188 C 274.851562 374.867188 290.632812 355.746094 290.632812 332.164062 L 290.632812 42.816406 C 290.632812 19.234375 274.851562 0.113281 255.382812 0.113281 " fill-opacity="1" fill-rule="nonzero"/></g></svg>