<svg xmlns="http://www.w3.org/2000/svg" xmlns:xlink="http://www.w3.org/1999/xlink" width="500" zoomAndPan="magnify" viewBox="0 0 375 374.999991" height="500" preserveAspectRatio="xMidYMid meet" version="1.0"><defs><clipPath id="8648f0a3b6"><path d="M 88 60 L 372 60 L 372 315.515625 L 88 315.515625 Z M 88 60 " clip-rule="nonzero"/></clipPath></defs><path fill="#ffffff" d="M 35.871094 233.84375 C 27.46875 233.84375 21.386719 243.691406 21.386719 257.015625 C 21.386719 270.339844 27.46875 280.1875 35.871094 280.1875 C 44.269531 280.1875 50.351562 270.339844 50.351562 257.015625 C 50.351562 243.691406 44.269531 233.84375 35.871094 233.84375 Z M 35.871094 268.3125 C 34.710938 266.863281 32.972656 263.097656 32.972656 257.015625 C 32.972656 250.933594 34.710938 247.167969 35.871094 245.71875 C 37.027344 247.167969 38.765625 250.933594 38.765625 257.015625 C 38.765625 263.097656 37.027344 266.863281 35.871094 268.3125 Z M 35.871094 268.3125 " fill-opacity="1" fill-rule="nonzero"/><g clip-path="url(#8648f0a3b6)"><path fill="#ffffff" d="M 369.542969 142.605469 C 369.542969 142.605469 333.335938 90.757812 333.335938 90.757812 C 332.46875 89.597656 331.308594 88.730469 329.863281 88.441406 C 295.683594 79.75 273.960938 61.792969 273.960938 61.503906 C 272.222656 60.054688 269.90625 59.765625 267.878906 60.632812 C 265.847656 61.503906 264.402344 63.53125 264.402344 65.847656 C 263.820312 84.675781 248.472656 99.738281 229.933594 99.738281 C 211.105469 99.738281 196.042969 84.964844 195.464844 65.847656 C 195.464844 63.53125 194.015625 61.503906 191.988281 60.632812 C 189.960938 59.765625 187.644531 60.054688 185.90625 61.503906 C 185.617188 61.792969 164.183594 79.75 130.003906 88.441406 C 128.558594 88.730469 127.398438 89.597656 126.527344 90.757812 C 126.527344 90.757812 90.324219 142.316406 90.324219 142.605469 C 85.980469 149.554688 88.007812 158.246094 94.667969 162.878906 L 122.765625 181.996094 C 125.082031 183.734375 127.976562 184.605469 130.875 184.605469 C 134.929688 184.605469 138.984375 182.867188 141.878906 179.679688 C 141.878906 179.679688 151.4375 167.804688 151.4375 167.804688 C 156.074219 181.996094 162.445312 218.492188 146.226562 298.144531 C 145.355469 302.199219 146.515625 306.546875 149.121094 309.730469 C 152.019531 313.207031 156.363281 315.234375 160.707031 315.234375 L 299.160156 315.234375 C 303.792969 315.234375 308.136719 313.207031 311.035156 309.441406 C 313.640625 305.964844 314.800781 301.910156 313.640625 297.855469 C 293.945312 216.464844 302.34375 180.257812 308.136719 167.226562 C 308.136719 167.226562 317.984375 179.679688 318.277344 179.96875 C 321.171875 183.15625 324.9375 184.894531 329.28125 184.894531 C 332.179688 184.894531 335.074219 184.023438 337.390625 182.285156 L 365.488281 163.167969 C 371.859375 158.246094 373.886719 149.265625 369.542969 142.605469 Z M 299.160156 303.359375 C 299.160156 303.359375 160.996094 303.359375 160.707031 303.359375 C 158.96875 303.359375 157.230469 301.910156 157.523438 299.882812 C 158.101562 296.988281 158.679688 294.378906 159.257812 291.773438 L 300.605469 291.773438 C 301.1875 294.667969 301.765625 297.277344 302.632812 300.171875 C 302.632812 300.753906 302.632812 303.359375 299.160156 303.359375 Z M 358.828125 153.03125 C 358.828125 153.03125 330.730469 172.148438 330.730469 172.148438 C 329.570312 173.019531 327.835938 172.726562 326.675781 171.859375 C 326.675781 171.859375 311.613281 153.03125 311.613281 153.03125 C 309.585938 150.425781 305.242188 150.136719 302.925781 152.742188 C 301.765625 153.902344 277.433594 180.546875 297.710938 280.476562 L 161.285156 280.476562 C 178.375 180.839844 158.101562 154.191406 157.230469 153.03125 C 154.914062 150.136719 150.570312 150.136719 148.253906 153.03125 L 133.191406 171.859375 C 132.03125 173.019531 130.292969 173.019531 129.136719 172.148438 L 101.039062 153.03125 C 99.59375 152.164062 99.300781 150.136719 100.171875 148.6875 L 134.929688 99.15625 C 158.390625 93.074219 176.058594 82.648438 185.328125 76.277344 C 190.542969 96.550781 208.5 111.03125 229.933594 111.03125 C 251.367188 111.03125 269.324219 96.550781 274.539062 76.277344 C 284.097656 82.648438 301.476562 92.785156 324.9375 99.15625 L 359.695312 148.6875 C 360.5625 150.136719 360.273438 152.164062 358.828125 153.03125 Z M 358.828125 153.03125 " fill-opacity="1" fill-rule="nonzero"/></g><path fill="#ffffff" d="M 230.082031 129.570312 C 230.460938 129.582031 230.835938 129.628906 231.207031 129.714844 C 231.578125 129.796875 231.9375 129.917969 232.285156 130.074219 C 232.632812 130.226562 232.960938 130.414062 233.273438 130.636719 C 233.582031 130.855469 233.867188 131.105469 234.128906 131.378906 C 234.390625 131.65625 234.625 131.953125 234.828125 132.277344 C 235.027344 132.597656 235.199219 132.9375 235.332031 133.292969 C 235.46875 133.648438 235.570312 134.011719 235.632812 134.386719 C 235.699219 134.761719 235.722656 135.140625 235.714844 135.519531 C 235.703125 135.902344 235.65625 136.277344 235.570312 136.648438 C 235.488281 137.019531 235.367188 137.378906 235.210938 137.722656 C 235.058594 138.070312 234.871094 138.402344 234.648438 138.710938 C 234.429688 139.019531 234.183594 139.308594 233.90625 139.570312 C 233.628906 139.832031 233.332031 140.0625 233.007812 140.265625 C 232.6875 140.46875 232.347656 140.636719 231.992188 140.773438 C 231.636719 140.910156 231.273438 141.007812 230.898438 141.074219 C 230.523438 141.136719 230.144531 141.164062 229.765625 141.152344 C 229.386719 141.140625 229.007812 141.09375 228.636719 141.011719 C 228.269531 140.925781 227.910156 140.808594 227.5625 140.652344 C 227.214844 140.496094 226.886719 140.308594 226.574219 140.089844 C 226.265625 139.871094 225.980469 139.621094 225.71875 139.34375 C 225.457031 139.070312 225.222656 138.769531 225.019531 138.449219 C 224.816406 138.125 224.648438 137.789062 224.511719 137.433594 C 224.378906 137.078125 224.277344 136.710938 224.214844 136.335938 C 224.148438 135.960938 224.121094 135.585938 224.132812 135.203125 C 224.144531 134.824219 224.191406 134.449219 224.273438 134.078125 C 224.359375 133.707031 224.480469 133.347656 224.632812 133 C 224.789062 132.652344 224.976562 132.324219 225.195312 132.011719 C 225.417969 131.703125 225.664062 131.417969 225.941406 131.15625 C 226.21875 130.894531 226.515625 130.664062 226.839844 130.460938 C 227.160156 130.257812 227.5 130.085938 227.855469 129.953125 C 228.210938 129.816406 228.574219 129.714844 228.949219 129.652344 C 229.324219 129.589844 229.703125 129.5625 230.082031 129.570312 Z M 230.082031 129.570312 " fill-opacity="1" fill-rule="nonzero"/><path fill="#ffffff" d="M 230.078125 152.746094 C 230.460938 152.757812 230.835938 152.804688 231.207031 152.886719 C 231.578125 152.972656 231.9375 153.09375 232.28125 153.246094 C 232.628906 153.402344 232.957031 153.589844 233.269531 153.808594 C 233.578125 154.03125 233.867188 154.277344 234.128906 154.554688 C 234.386719 154.828125 234.621094 155.128906 234.824219 155.449219 C 235.027344 155.773438 235.195312 156.109375 235.332031 156.464844 C 235.46875 156.820312 235.566406 157.1875 235.628906 157.5625 C 235.695312 157.9375 235.722656 158.3125 235.710938 158.695312 C 235.699219 159.074219 235.652344 159.449219 235.570312 159.820312 C 235.484375 160.191406 235.363281 160.550781 235.210938 160.898438 C 235.054688 161.246094 234.867188 161.574219 234.648438 161.886719 C 234.425781 162.195312 234.179688 162.480469 233.902344 162.742188 C 233.628906 163.003906 233.328125 163.234375 233.007812 163.4375 C 232.683594 163.640625 232.34375 163.8125 231.992188 163.945312 C 231.636719 164.082031 231.269531 164.183594 230.894531 164.246094 C 230.519531 164.308594 230.140625 164.335938 229.761719 164.328125 C 229.382812 164.316406 229.007812 164.269531 228.636719 164.183594 C 228.265625 164.101562 227.90625 163.980469 227.558594 163.824219 C 227.210938 163.671875 226.882812 163.484375 226.570312 163.261719 C 226.261719 163.042969 225.976562 162.796875 225.714844 162.519531 C 225.453125 162.242188 225.21875 161.945312 225.019531 161.621094 C 224.816406 161.300781 224.644531 160.960938 224.511719 160.605469 C 224.375 160.25 224.273438 159.886719 224.210938 159.511719 C 224.144531 159.136719 224.121094 158.757812 224.128906 158.378906 C 224.140625 157.996094 224.1875 157.621094 224.273438 157.25 C 224.355469 156.878906 224.476562 156.519531 224.632812 156.175781 C 224.785156 155.828125 224.972656 155.496094 225.195312 155.1875 C 225.414062 154.878906 225.660156 154.589844 225.9375 154.328125 C 226.214844 154.066406 226.511719 153.835938 226.835938 153.632812 C 227.15625 153.429688 227.496094 153.261719 227.851562 153.125 C 228.207031 152.988281 228.570312 152.890625 228.945312 152.824219 C 229.320312 152.761719 229.699219 152.734375 230.078125 152.746094 Z M 230.078125 152.746094 " fill-opacity="1" fill-rule="nonzero"/><path fill="#ffffff" d="M 145.066406 210.671875 C 145.066406 206.328125 145.066406 202.5625 144.777344 199.085938 C 144.777344 199.085938 36.449219 199.085938 35.871094 199.085938 C 26.890625 199.085938 18.78125 204.589844 12.699219 213.566406 L 12.699219 77.433594 C 12.699219 74.246094 15.304688 71.640625 18.492188 71.640625 L 144.199219 71.640625 C 153.757812 67.875 161.867188 63.53125 167.660156 60.054688 L 18.492188 60.054688 C 8.933594 60.054688 1.113281 67.875 1.113281 77.433594 C 1.113281 77.433594 1.113281 255.566406 1.113281 257.015625 C 1.113281 289.457031 16.464844 314.945312 35.871094 314.945312 C 36.449219 314.945312 138.984375 314.945312 138.984375 314.945312 C 136.667969 311.46875 135.21875 307.414062 134.640625 303.359375 L 57.015625 303.359375 C 62.808594 296.117188 67.152344 286.269531 69.179688 274.394531 L 116.972656 274.394531 C 120.15625 274.394531 122.765625 271.789062 122.765625 268.601562 C 122.765625 265.414062 120.15625 262.808594 116.972656 262.808594 L 70.335938 262.808594 C 70.335938 260.78125 70.335938 253.25 70.335938 251.222656 L 85.109375 251.222656 C 88.296875 251.222656 90.902344 248.617188 90.902344 245.429688 C 90.902344 242.242188 88.296875 239.636719 85.109375 239.636719 L 69.179688 239.636719 C 67.152344 227.761719 62.808594 217.914062 57.015625 210.671875 Z M 35.871094 303.359375 C 24.863281 303.359375 12.699219 284.242188 12.699219 257.015625 C 12.699219 229.789062 24.863281 210.671875 35.871094 210.671875 C 46.875 210.671875 59.042969 229.789062 59.042969 257.015625 C 59.042969 284.242188 46.875 303.359375 35.871094 303.359375 Z M 35.871094 303.359375 " fill-opacity="1" fill-rule="nonzero"/></svg>