<svg id="Layer_1" data-name="Layer 1" xmlns="http://www.w3.org/2000/svg" width="471" height="58.4" viewBox="0 0 471 58.4"><title>Liebherr logo - Brandlogos.net</title><path d="M261,399.64h14.79V413.2H233.47V354.8h41.92v13.56H261v9.33h13.14V390H261v9.66ZM196.21,413.2h27.93V354.8H196.21ZM176,354.8H148.5v58.4h40.22V397.56H176Zm280.57,35.14h13.14V377.64H456.58v-9.28H471V354.8H429.07v58.4h42.34V399.64H456.58Zm-108.66,7.58c0,7.63-4.47,12.62-12.1,14.46a66.7,66.7,0,0,1-13.66,1.22H284.24V354.8h37.68A64.11,64.11,0,0,1,335.3,356c7.44,1.84,11.82,6.83,11.82,14.46,0,7-4.14,11.82-9.42,13.38,5.65,1.27,10.22,6.26,10.22,13.66m-37.07-19h3.82c5.09,0,6.78-2.54,6.78-6.12s-1.7-6.12-6.78-6.12h-3.82Zm11.45,17c0-3.82-1.74-6.36-7.21-6.36h-4.24V401.8h4.24c5.51,0,7.21-2.59,7.21-6.36M392,376.37h-9.33V354.8H355.17v58.4h27.51V390.78H392V413.2h27.51V354.8H392Zm212.37,12.48c7.21-3.3,10.41-8.76,10.41-16.2,0-8.67-5.18-14.32-13.85-16.44a77.11,77.11,0,0,0-15.54-1.41H551.53v58.4h26.23V394.6h2.36l9.94,18.6H619.5Zm-22.8-6.55h-3.82V368.36h3.82c5.09,0,6.78,2.54,6.78,7S586.67,382.3,581.58,382.3Zm-49,6.55c7.21-3.3,10.41-8.76,10.41-16.2,0-8.67-5.18-14.32-13.85-16.44a77.11,77.11,0,0,0-15.54-1.41H479.71v58.4h26.23V394.6h2.36l9.94,18.6h29.44Zm-22.84-6.55h-3.82V368.36h3.82c5.09,0,6.78,2.54,6.78,7S514.8,382.3,509.71,382.3Z" transform="translate(-148.5 -354.8)"/></svg>