<?xml version="1.0" encoding="UTF-8"?>
<svg id="katman_1" data-name="katman 1" xmlns="http://www.w3.org/2000/svg" version="1.1" viewBox="0 0 2067.5 202.7">
  <defs>
    <style>
      .cls-1 {
        fill: #1d1d1b;
        stroke-width: 0px;
      }
    </style>
  </defs>
  <polygon class="cls-1" points="338.5 0 338.5 65.3 184.6 0 338.5 0"/>
  <path class="cls-1" d="M1357.6,193.3l-68.9-79.1c-10.1-10.9-12.2-22.6-12.2-22.6v109.8h-57.3V10.7h53.3l93.4,112.3,93.4-112.3h53.3v190.6h-57.3v-109.8s-2.1,11.8-12.2,22.6l-68.9,79.1h-16.6ZM338.5,91.6v109.8h-58.3V66.9l58.3,24.7ZM189.8,127.8H58v73.6H0V10.5h58v69.8h131.8V28.5l58.3,24.7v148.2h-58.3v-73.6ZM1041.9,156.9h44.8c18.6,0,30.7-3.9,36.2-11.8,4.1-6.1,6.2-18.9,6.2-38.3s-1.8-34-5.4-39.6c-5.2-7.9-17.2-11.8-35.9-11.8h-66.3c-18.8,0-30.8,3.9-36,11.8-3.6,5.6-5.4,18.2-5.4,39.6s2.1,32.1,6.2,38.3c5.5,7.9,17.6,11.8,36.2,11.8h19.4ZM1161.6,190.7c-10.9,8-24.9,12-41.9,12h-130.1c-17.1,0-31.1-4-41.9-12-11.7-8.6-18.9-21.3-21.6-37.9-1.5-9.3-2.2-24.5-2.2-45.6v-11c0-34.5,6-57.5,18.1-69.2,12-11.9,35.1-17.8,69.1-17.8h87.4c34,0,57,5.9,69,17.8,12.1,11.7,18.1,34.8,18.1,69.2v11c0,21-.7,36.2-2.2,45.6-2.7,16.6-9.9,29.3-21.6,37.9ZM1555.1,10.5h212.9v43.4h-154.7v30h144.4v43.1h-144.4v31.2h154.9l-.2,43.2h-212.9V10.5ZM827.2,58.5c-4.2-1.2-9.7-1.8-16.6-1.8h-96.7v49.2h95.2c13,0,21.2-1.7,24.6-5,3.4-3.4,5-10.5,5-21.6-.2-6-.7-10.3-1.7-12.8-1.7-4.1-5-6.7-9.8-8ZM884.4,137.6c7,5.7,10.6,14.7,10.6,27.1v36.6h-59v-18.3c0-11.8-1.1-19.6-3.3-23.1-3.2-5-10.5-7.5-21.8-7.5h-96.9v49h-58.2V10.5h177.8c22.8,0,39,4.3,48.7,12.8,10.1,9.2,15.1,25,15.1,47.5s-2.7,31-8,39.2c-3,4.9-7.2,8.6-12.3,10.8l-14.2,6.3,14.2,6.2c3,1.3,5.4,2.7,7.5,4.4ZM602.4,189.5c-10.9,7.8-24.9,11.8-41.9,11.8h-189.8V10.5h168.5c34,0,57,5.9,69.1,17.6,12.1,11.6,18.1,34.3,18.1,68.3v10.8c0,20.8-.7,35.7-2.2,44.9-2.7,16.4-9.9,28.9-21.6,37.4ZM563.8,68.8c-5-7.5-16.7-11.3-34.9-11.3h-98.7v97.2h97.7c18.1,0,29.8-3.8,35.1-11.3,4-5.9,6-18.1,6-36.7s-1.8-32.6-5.3-37.9ZM1919.2,101.6l148.3,99.8h-92.1l-113-79.4v79.4h-58.3V10.5h58.3v73.1l108.9-73.1h84.1l-136.3,91Z"/>
  <path class="cls-1" d="M2054.7,104.2c1,.8,1.5,2.1,1.5,3.8v6.7h-8.3v-4.1c0-1.7-.1-2.7-.5-3.2-.4-.7-1.5-1.1-3.1-1.1h-13.6v8.4h-8.2v-28.3h24.9c3.2,0,5.5.6,6.8,1.8,1.4,1.3,2.1,3.5,2.1,6.6s-.4,4.4-1.1,5.5c-.4.7-1,1.2-1.7,1.5l-2,.9,2,.9c.4.2.8.4,1,.6ZM2067.5,101.3c0-15.6-12.8-28.4-28.4-28.4s-28.5,12.8-28.5,28.4,12.8,28.5,28.5,28.5,28.4-12.8,28.4-28.5ZM2063.6,101.3c0,13.5-11,24.5-24.5,24.5s-24.5-11-24.5-24.5,11-24.5,24.5-24.5,24.5,11,24.5,24.5ZM2046.7,93.1c-.6-.2-1.4-.2-2.3-.2h-13.6v6.9h13.3c1.8,0,3-.2,3.4-.7.5-.5.7-1.5.7-3,0-.8-.1-1.4-.2-1.8-.2-.6-.7-.9-1.4-1.1Z"/>
</svg>